HIERARCHY
ROOT Hips
{
 OFFSET 0.000000 0.000000 0.000000
 CHANNELS 6 Xposition Yposition Zposition Yrotation Xrotation Zrotation
 JOINT Chest
 {
  OFFSET 0.000000 9.585900 0.002600
  CHANNELS 3 Yrotation Xrotation Zrotation
  JOINT Chest2
  {
   OFFSET 0.000000 9.601200 -0.005300
   CHANNELS 3 Yrotation Xrotation Zrotation
   JOINT Chest3
   {
    OFFSET 0.000000 9.561800 0.000000
    CHANNELS 3 Yrotation Xrotation Zrotation
    JOINT Chest4
    {
     OFFSET 0.000000 9.552100 0.000000
     CHANNELS 3 Yrotation Xrotation Zrotation
     JOINT Neck
     {
      OFFSET 0.000000 14.453000 0.000000
      CHANNELS 3 Yrotation Xrotation Zrotation
      JOINT Head
      {
       OFFSET 0.000000 8.936500 -0.011300
       CHANNELS 3 Yrotation Xrotation Zrotation
       End Site
       {
        OFFSET 0.000000 17.073600 -0.006000
       }
      }
     }
     JOINT RightCollar
     {
      OFFSET -2.921100 9.558500 0.000000
      CHANNELS 3 Yrotation Xrotation Zrotation
      JOINT RightShoulder
      {
       OFFSET -13.519700 0.000000 0.000000
       CHANNELS 3 Yrotation Xrotation Zrotation
       JOINT RightElbow
       {
        OFFSET 0.000000 -29.696600 0.000000
        CHANNELS 3 Yrotation Xrotation Zrotation
        JOINT RightWrist
        {
         OFFSET 0.000000 -24.004700 0.000000
         CHANNELS 3 Yrotation Xrotation Zrotation
         End Site
         {
          OFFSET 0.000000 -17.728500 0.000000
         }
        }
       }
      }
     }
     JOINT LeftCollar
     {
      OFFSET 2.921100 9.558500 0.000000
      CHANNELS 3 Yrotation Xrotation Zrotation
      JOINT LeftShoulder
      {
       OFFSET 13.519700 0.000000 0.000000
       CHANNELS 3 Yrotation Xrotation Zrotation
       JOINT LeftElbow
       {
        OFFSET 0.000000 -29.696600 0.000000
        CHANNELS 3 Yrotation Xrotation Zrotation
        JOINT LeftWrist
        {
         OFFSET 0.000000 -24.004700 0.000000
         CHANNELS 3 Yrotation Xrotation Zrotation
         End Site
         {
          OFFSET 0.000000 -17.728500 0.000000
         }
        }
       }
      }
     }
    }
   }
  }
 }
 JOINT RightHip
 {
  OFFSET -7.771700 -0.012900 -0.001300
  CHANNELS 3 Yrotation Xrotation Zrotation
  JOINT RightKnee
  {
   OFFSET 0.000000 -40.869800 0.001200
   CHANNELS 3 Yrotation Xrotation Zrotation
   JOINT RightAnkle
   {
    OFFSET 0.000000 -39.717900 0.002100
    CHANNELS 3 Yrotation Xrotation Zrotation
    JOINT RightToe
    {
     OFFSET 0.000000 -4.965400 11.033500
     CHANNELS 3 Yrotation Xrotation Zrotation
     End Site
     {
      OFFSET 0.000000 -1.423100 5.872300
     }
    }
   }
  }
 }
 JOINT LeftHip
 {
  OFFSET 7.771700 -0.012900 -0.001300
  CHANNELS 3 Yrotation Xrotation Zrotation
  JOINT LeftKnee
  {
   OFFSET 0.000000 -40.869800 0.001200
   CHANNELS 3 Yrotation Xrotation Zrotation
   JOINT LeftAnkle
   {
    OFFSET 0.000000 -39.717900 0.002100
    CHANNELS 3 Yrotation Xrotation Zrotation
    JOINT LeftToe
    {
     OFFSET 0.000000 -4.965400 11.033500
     CHANNELS 3 Yrotation Xrotation Zrotation
     End Site
     {
      OFFSET 0.000000 -1.423100 5.872300
     }
    }
   }
  }
 }
}
MOTION
Frames: 8
Frame Time: 0.008333
-10.984668 52.871335 14.136385 -178.474086 -16.112550 -2.909722 0.920155 15.867808 1.154837 0.060137 1.535615 0.094367 0.146772 2.615225 0.197870 0.842485 14.109786 1.095641 0.030319 21.067749 4.429105 -0.981860 -3.198903 4.758608 0.304207 -1.127784 2.915597 -0.030898 -7.712736 -4.756121 -67.657513 -75.685271 95.524137 -7.196257 -8.039323 -8.417458 -5.946697 -2.394063 1.348283 4.112207 -4.742853 8.874051 65.289102 -62.310992 -100.963478 2.720165 -12.141985 11.042564 3.334153 -62.635736 10.729966 165.633414 86.215822 164.993615 -12.125035 -20.753300 10.817904 0.026092 0.261526 -0.457691 3.255004 -61.007910 -1.994106 121.995705 77.830471 120.639918 -6.013802 -20.055749 -1.496379 0.013012 0.096994 -0.030514
-10.980069 52.870489 14.132156 -178.482140 -16.122600 -2.900765 0.895715 15.850978 1.115419 0.070232 1.543126 0.100595 0.156390 2.623775 0.203574 0.822770 14.093987 1.062223 0.058571 21.049265 4.452771 -0.984847 -3.320123 4.753535 0.309390 -1.141930 2.918301 -0.024735 -7.686588 -4.744196 -67.579987 -75.693855 95.479562 -7.203414 -8.069021 -8.406093 -5.918581 -2.377477 1.375001 4.127707 -4.721981 8.870978 65.312769 -62.316166 -101.001915 2.741323 -12.199033 11.039724 3.241424 -62.614945 10.782243 165.720238 86.193149 165.041319 -12.200209 -20.849948 10.952831 0.029172 0.269469 -0.451998 3.165017 -61.009216 -1.936180 122.047759 77.808004 120.658116 -5.983934 -20.045864 -1.510913 -0.004026 0.085899 -0.034037
-10.974422 52.869325 14.128135 -178.498002 -16.135872 -2.891926 0.900821 15.853999 1.100793 0.059989 1.534025 0.090274 0.155307 2.619291 0.199812 0.832253 14.104206 1.061356 0.063431 21.015925 4.456347 -0.986130 -3.442125 4.743022 0.299967 -1.168475 2.903550 -0.030713 -7.680061 -4.758548 -67.472682 -75.662606 95.410092 -7.222213 -8.085436 -8.409135 -5.905590 -2.390157 1.370859 4.144895 -4.677755 8.869468 65.386521 -62.306950 -101.107850 2.718704 -12.175205 11.064802 3.148341 -62.588569 10.829327 165.656770 86.165080 164.912134 -12.161224 -20.961996 11.094835 0.036338 0.276745 -0.460734 3.113272 -61.002176 -1.897213 122.093993 77.793688 120.684527 -5.958130 -20.047281 -1.522639 -0.020182 0.083857 -0.033148
-10.969191 52.867548 14.125172 -178.515332 -16.145929 -2.875906 0.894953 15.847642 1.069394 0.060372 1.531519 0.087023 0.153858 2.618252 0.196170 0.842314 14.111893 1.059973 0.050667 20.937919 4.441402 -0.973655 -3.520163 4.739862 0.291957 -1.194607 2.891179 -0.017606 -7.645804 -4.734209 -67.449352 -75.662749 95.394118 -7.203034 -8.096601 -8.395603 -5.901207 -2.397854 1.369359 4.168150 -4.638227 8.864319 65.405907 -62.320404 -101.146558 2.706645 -12.168777 11.071417 3.072734 -62.570112 10.894944 166.018600 86.148191 165.235137 -12.364177 -21.060901 11.292256 0.034151 0.298544 -0.472944 3.092502 -60.994458 -1.887045 122.113997 77.787778 120.695819 -5.938276 -20.048824 -1.530616 -0.025250 0.084885 -0.037611
-10.965142 52.865096 14.123372 -178.526738 -16.150802 -2.849779 0.862393 15.819577 1.006241 0.079262 1.546790 0.101049 0.134504 2.593133 0.170664 0.851814 14.112633 1.038043 0.055830 20.817016 4.435574 -0.952078 -3.523187 4.755331 0.304739 -1.188640 2.915028 -0.012696 -7.628125 -4.733709 -67.380269 -75.657417 95.336897 -7.171822 -8.089177 -8.385307 -5.896274 -2.390179 1.389519 4.197730 -4.576308 8.867413 65.426307 -62.350720 -101.171961 2.727034 -12.168043 11.074634 3.006930 -62.564290 11.002827 167.185883 86.147812 166.416778 -12.991652 -21.127951 11.568836 0.013574 0.338067 -0.486501 3.091503 -60.990852 -1.904345 122.112523 77.786011 120.687306 -5.920910 -20.046366 -1.540176 -0.027542 0.087190 -0.039634
-10.957459 52.862359 14.122062 -178.539795 -16.153673 -2.839877 0.860971 15.810739 0.988136 0.075695 1.540449 0.096056 0.134328 2.589773 0.167166 0.859045 14.119350 1.035304 0.040781 20.715279 4.409956 -0.939981 -3.573247 4.756103 0.293529 -1.209285 2.903283 -0.005966 -7.611422 -4.732540 -67.224624 -75.690986 95.190064 -7.204648 -8.102223 -8.375027 -5.896629 -2.393236 1.390373 4.207082 -4.534096 8.849622 65.443472 -62.367678 -101.187518 2.776153 -12.155646 11.064210 2.851506 -62.552792 11.183212 167.957429 86.139904 167.153349 -13.471136 -21.210121 11.843600 -0.000081 0.366395 -0.520005 3.089929 -60.990653 -1.905596 122.108880 77.790665 120.703383 -5.923524 -20.043047 -1.562084 -0.005388 0.088632 -0.036872
-10.951525 52.858308 14.123814 -178.536760 -16.137127 -2.818204 0.846807 15.791040 0.960756 0.064678 1.525317 0.085278 0.138331 2.592440 0.167922 0.852281 14.107198 1.014450 0.047676 20.651068 4.405507 -0.929344 -3.647068 4.749792 0.287425 -1.214213 2.905077 0.001918 -7.596617 -4.733421 -67.125603 -75.692966 95.097240 -7.224002 -8.106781 -8.364968 -5.889511 -2.379035 1.399585 4.198872 -4.477328 8.791975 65.449984 -62.425994 -101.177690 2.767687 -12.158255 11.063998 2.793736 -62.558651 11.174784 167.576542 86.096592 166.682077 -13.337277 -21.359799 12.060965 0.014840 0.369384 -0.578122 3.103951 -61.009422 -1.939440 122.113373 77.787423 120.716824 -5.926991 -20.067853 -1.577339 0.003913 0.115645 -0.030896
-10.941424 52.855461 14.120669 -178.541995 -16.150706 -2.814614 0.837450 15.787604 0.943185 0.067161 1.527437 0.086666 0.133219 2.584648 0.161576 0.851719 14.101106 0.995323 0.058291 20.587255 4.403307 -0.912983 -3.720657 4.741080 0.282199 -1.217074 2.911034 0.007922 -7.583080 -4.732892 -67.015580 -75.698037 94.988439 -7.243137 -8.110968 -8.349580 -5.882368 -2.362863 1.408272 4.202982 -4.453101 8.792629 65.422549 -62.413351 -101.156317 2.751192 -12.164783 11.067454 2.760830 -62.531184 11.133544 166.915806 86.044568 165.920177 -12.925740 -21.549330 12.256339 0.038648 0.368160 -0.643126 3.068061 -60.999946 -1.911837 122.127391 77.780517 120.728166 -5.918767 -20.072380 -1.588529 -0.000486 0.121701 -0.030184
